<?xml version="1.0" encoding="UTF-8"?>
<svg version="1.1" xmlns="http://www.w3.org/2000/svg" width="2940" height="415">
<path d="M0 0 C2.11109246 -0.00961335 4.2211704 -0.04064224 6.33203125 -0.07226562 C21.09984775 -0.18707027 35.94011545 1.69415915 47.33203125 11.87304688 C49.99280678 14.64468805 49.94492286 17.32213832 49.89013672 21.06445312 C49.48477848 24.65545971 47.91405717 27.62006031 46.20703125 30.74023438 C45.84432129 31.43036621 45.48161133 32.12049805 45.10791016 32.83154297 C43.97117838 34.97783679 42.80991475 37.10938879 41.64453125 39.24023438 C41.30244629 39.87993164 40.96036133 40.51962891 40.60791016 41.17871094 C34.48081951 52.63616234 27.47118451 63.52040133 20.44189453 74.43896484 C17.52675047 78.98234476 14.64797314 83.54854658 11.76953125 88.11523438 C11.25156982 88.93612549 10.7336084 89.7570166 10.19995117 90.6027832 C9.0144207 92.48168726 7.82941087 94.36091981 6.64453125 96.24023438 C7.20932693 96.16070526 7.77412262 96.08117615 8.35603333 95.99923706 C16.25472896 95.07568739 23.97649253 95.35344531 31.89738464 95.66702271 C38.6431031 95.93390535 45.39050216 96.05302057 52.14030743 96.1658802 C57.2469325 96.25758598 62.34261716 96.39862227 67.4440918 96.64941406 C89.35215612 98.82405376 89.35215612 98.82405376 109.00482178 91.66500854 C114.5669372 85.66872937 117.51387915 78.24211152 120.2736969 70.64065552 C122.42832641 65.29599245 125.59308806 60.74594236 128.89453125 56.05273438 C130.04001139 54.36587834 131.18467527 52.6784674 132.328125 50.99023438 C139.81768208 40.19021868 147.5736695 29.77582719 156.64453125 20.24023438 C157.25167969 19.54671875 157.85882812 18.85320313 158.484375 18.13867188 C169.21562216 6.38648153 183.8708448 0.85654112 199.515625 0.03759766 C203.97488325 -0.12419867 208.43265186 -0.17521153 212.89453125 -0.19726562 C213.62337524 -0.20371094 214.35221924 -0.21015625 215.10314941 -0.21679688 C228.42541173 -0.28869979 241.85548075 0.54905481 252.64453125 9.24023438 C256.01444894 13.5021891 256.22771542 17.92238736 256.04296875 23.20898438 C253.08451717 45.71641989 234.26131578 67.17801252 220.78125 84.47851562 C218.30943255 87.67335097 215.95544889 90.9279191 213.64453125 94.24023438 C214.25296875 94.20542969 214.86140625 94.170625 215.48828125 94.13476562 C221.46787848 93.95010159 227.0920168 94.47951819 232.95703125 95.55273438 C233.62605469 95.67044189 234.29507812 95.78814941 234.984375 95.90942383 C239.27779399 96.74490862 242.8896095 97.99063893 246.64453125 100.24023438 C248.26953125 103.05273438 248.26953125 103.05273438 248.64453125 106.24023438 C242.8432961 116.62139202 230.8854886 122.83763566 220.64453125 128.24023438 C219.89429688 128.64113281 219.1440625 129.04203125 218.37109375 129.45507812 C209.32743734 133.65958505 197.59236314 135.24023438 187.64453125 135.24023438 C187.4125 135.75457031 187.18046875 136.26890625 186.94140625 136.79882812 C183.49267664 143.29116549 178.87619859 149.23832782 174.64453125 155.24023438 C174.08056641 156.04138672 173.51660156 156.84253906 172.93554688 157.66796875 C155.94458326 181.66080763 141.1709832 191.58931574 112.64453125 198.24023438 C111.88301758 198.42102539 111.12150391 198.60181641 110.33691406 198.78808594 C100.51377215 201.02892058 90.76786917 201.55356861 80.70703125 201.67773438 C79.01864136 201.71133057 79.01864136 201.71133057 77.29614258 201.74560547 C69.11093934 201.72262182 60.79289614 200.84009224 54.38818359 195.28222656 C52.08886199 192.58948981 51.8344501 190.7515247 51.64453125 187.24023438 C54.55587961 168.35653446 68.89513971 150.23929829 78.64453125 135.24023438 C46.63453125 134.91023437 14.62453125 134.58023438 -18.35546875 134.24023438 C-19.01546875 135.89023438 -19.67546875 137.54023438 -20.35546875 139.24023438 C-43.84952035 188.46380928 -43.84952035 188.46380928 -65.79638672 196.32861328 C-77.53217996 200.34325601 -88.84868437 201.61349599 -101.20507812 201.61083984 C-103.45651429 201.61518811 -105.70594285 201.65155767 -107.95703125 201.68945312 C-122.29715393 201.80020277 -137.2062159 200.24583062 -148.35546875 190.49023438 C-150.5702727 185.5069255 -149.97362789 181.16501224 -148.359375 176.13867188 C-143.05275473 163.06003268 -135.44026792 150.77586246 -127.35546875 139.24023438 C-128.05671875 139.21445313 -128.75796875 139.18867188 -129.48046875 139.16210938 C-135.77011129 138.78609814 -141.15685084 138.01867847 -146.35546875 134.24023438 C-148.44303609 131.10888336 -148.75723071 129.88983542 -148.0625 126.25585938 C-143.98134433 114.62118355 -130.37763396 107.386725 -119.94921875 102.24023438 C-117.35546875 101.24023438 -117.35546875 101.24023438 -114.19921875 100.61523438 C-108.82613336 99.51048785 -105.42883973 98.49878234 -101.796875 94.24023438 C-99.57450446 90.85755915 -97.648899 87.31499029 -95.73339844 83.75195312 C-93.15597056 79.05376425 -90.33425702 74.50093905 -87.54296875 69.92773438 C-86.95040283 68.9503833 -86.35783691 67.97303223 -85.74731445 66.96606445 C-77.13244211 52.83281839 -67.84470459 39.05854973 -57.35546875 26.24023438 C-56.72656738 25.46558838 -56.72656738 25.46558838 -56.08496094 24.67529297 C-41.18356001 6.5663403 -23.2950352 0.06388035 0 0 Z " fill="#FFFFFF" transform="translate(1235.35546875,38.759765625)"/>
<path d="M0 0 C3.19968678 0.00464419 6.39899452 -0.00236457 9.59863281 -0.02050781 C29.85556262 -0.13412604 49.63084381 0.49148427 69.73413086 3.31567383 C70.50014618 3.42271637 71.2661615 3.52975891 72.0553894 3.64004517 C75.94920519 4.20186907 79.81129126 4.87160234 83.67163086 5.62817383 C85.32497437 5.94564575 85.32497437 5.94564575 87.01171875 6.26953125 C113.89849826 11.61036201 145.87535751 19.86464447 163.73413086 42.31567383 C168.00731162 49.15276304 168.76005957 56.40136665 167.73413086 64.31567383 C164.14580107 78.26580986 153.3113964 88.21417711 141.29663086 95.37817383 C120.98626674 106.6770081 99.39898006 112.08080117 76.73413086 116.31567383 C102.4889331 139.33731338 140.97927929 145.25274674 173.73413086 152.31567383 C171.33940902 165.22793813 163.24808109 175.51518653 152.79663086 183.12817383 C132.36493461 196.4777177 109.07961563 198.448476 85.35913086 193.75317383 C58.08522624 187.74140824 35.36232872 176.31426337 15.35180664 156.88208008 C13.72103509 155.30299311 12.07038448 153.74680323 10.41772461 152.19067383 C4.63520858 146.66667028 -0.57875222 140.94539616 -5.32836914 134.50317383 C-5.76938965 133.90529053 -6.21041016 133.30740723 -6.66479492 132.69140625 C-15.41963712 120.40310568 -15.41963712 120.40310568 -14.26586914 113.31567383 C-11.7947991 109.86653937 -8.71690325 109.47066267 -4.71118164 108.58911133 C-3.37023507 108.28215567 -2.02950432 107.97425602 -0.68896484 107.66552734 C0.01287933 107.50722443 0.71472351 107.34892151 1.43783569 107.18582153 C20.77057558 102.77713407 39.11187482 96.99699311 54.73413086 84.31567383 C55.42506836 83.75493164 56.11600586 83.19418945 56.82788086 82.61645508 C65.13519384 75.09250713 69.88864494 64.92504711 71.10913086 53.94067383 C70.44744184 47.54434662 68.49471296 41.51932507 63.73413086 37.00317383 C53.40042927 29.31247348 37.58669674 25.31567383 24.73413086 25.31567383 C24.40840088 25.95255127 24.0826709 26.58942871 23.74707031 27.24560547 C17.24798917 39.92295143 10.61020409 52.4811834 3.54418945 64.85253906 C-0.15978386 71.34034426 -3.77187447 77.87094907 -7.32836914 84.44067383 C-11.69529219 92.4991044 -16.1845267 100.47685316 -20.76611328 108.41503906 C-23.86101659 113.79623103 -26.84336852 119.22536475 -29.7668457 124.70141602 C-37.62030673 139.37996955 -46.24902163 153.75598553 -57.26586914 166.31567383 C-57.8240332 166.95633789 -58.38219727 167.59700195 -58.95727539 168.25708008 C-75.91559205 186.47448289 -109.3249926 192.30831761 -133.0690918 193.29321289 C-141.01794629 193.37448591 -149.19253882 192.88289329 -155.26586914 187.31567383 C-158.34100102 182.702976 -157.9434582 178.72360157 -157.26586914 173.31567383 C-147.19163002 133.48083842 -115.08647418 94.34117161 -91.26586914 61.31567383 C-90.16675084 59.78323647 -89.06779958 58.25067928 -87.96899414 56.71801758 C-86.83928111 55.14604693 -85.70908363 53.57442429 -84.57836914 52.00317383 C-84.07958252 51.30998047 -83.5807959 50.61678711 -83.06689453 49.90258789 C-78.54505247 43.64780229 -73.90874593 37.48086913 -69.26586914 31.31567383 C-70.54264526 31.37682373 -70.54264526 31.37682373 -71.84521484 31.43920898 C-75.05613232 31.58699271 -78.26729283 31.72348787 -81.47900391 31.8527832 C-82.85907783 31.91056046 -84.23898074 31.97260958 -85.61865234 32.03930664 C-102.35437149 32.84174577 -102.35437149 32.84174577 -110.26586914 30.31567383 C-112.57836914 28.12817383 -112.57836914 28.12817383 -113.26586914 25.31567383 C-112.88084587 20.21411546 -111.0626664 17.70423631 -107.45336914 14.12817383 C-98.72034883 7.04688077 -87.12385346 5.65969524 -76.26586914 4.19067383 C-74.71512695 3.95670898 -74.71512695 3.95670898 -73.13305664 3.71801758 C-48.88989617 0.31497533 -24.43291193 -0.03836769 0 0 Z " fill="#FFFFFF" transform="translate(2331.265869140625,43.684326171875)"/>
<path d="M0 0 C1.01189896 -0.00570007 2.02379791 -0.01140015 3.06636047 -0.01727295 C5.19323708 -0.02665079 7.32012774 -0.03322789 9.44702148 -0.03710938 C12.65049372 -0.04679852 15.85331868 -0.07788547 19.05664062 -0.109375 C42.80187243 -0.23218187 63.03580105 3.17687598 81.11328125 19.828125 C93.03973276 32.41174832 99.31204964 48.704952 104.51171875 64.94921875 C104.73182114 65.63648544 104.95192352 66.32375214 105.17869568 67.03184509 C105.40227249 67.73007889 105.6258493 68.42831268 105.85620117 69.14770508 C114.98957843 97.6390912 128.90081063 120.92775873 147.44482422 144.25732422 C148.7308811 145.87862656 150.00382865 147.51031678 151.2734375 149.14453125 C157.56581363 157.19412125 164.57052991 164.58892649 171.58203125 172.0078125 C172.17991455 172.64364258 172.77779785 173.27947266 173.39379883 173.93457031 C174.56619917 175.18037618 175.74301416 176.42204471 176.92456055 177.65917969 C180.98828125 181.97915994 180.98828125 181.97915994 180.98828125 184.203125 C146.51828511 196.06012613 108.93094828 208.83945092 73.61328125 192.453125 C57.44155086 183.68895154 46.96352936 166.79456809 37.98828125 151.203125 C29.96184962 152.00326772 22.07441439 153.33477385 14.13476562 154.7421875 C13.13123047 154.91492188 12.12769531 155.08765625 11.09375 155.265625 C10.20840576 155.42160156 9.32306152 155.57757813 8.41088867 155.73828125 C-2.2886481 157.1914461 -12.73575507 157.21713847 -23.50071907 156.94207191 C-29.09442496 156.80979579 -34.68943393 156.7438296 -40.28408146 156.66351032 C-45.17473429 156.58953774 -50.06318021 156.49377028 -54.95239258 156.3527832 C-59.71911334 156.21664312 -64.48356011 156.14037573 -69.25204277 156.10353661 C-71.05479208 156.07903859 -72.85739421 156.03328362 -74.65901375 155.96492958 C-85.28945347 155.33335174 -85.28945347 155.33335174 -94.50094604 159.82479858 C-97.34476337 162.71967749 -99.64897815 165.91146848 -102.01171875 169.203125 C-126.69386203 194.19730228 -158.1888213 199.69321674 -191.96484375 200.1875 C-196.36187312 200.21004887 -200.74397739 200.14952178 -205.13671875 199.953125 C-205.82781738 199.92702148 -206.51891602 199.90091797 -207.23095703 199.87402344 C-212.34138534 199.55327998 -216.38331452 198.2864089 -221.01171875 196.203125 C-222.51171875 193.515625 -222.51171875 193.515625 -223.01171875 191.203125 C-218.53468628 185.75271134 -213.92511641 181.21063459 -208.26171875 177.015625 C-207.54306641 176.47389648 -206.82441406 175.93216797 -206.08398438 175.37402344 C-198.10722751 169.42055554 -189.8708727 163.8374126 -181.59960938 158.30371094 C-180.04568941 157.2965459 -180.04568941 157.2965459 -179.01171875 156.203125 C-180.83896484 155.83960938 -180.83896484 155.83960938 -182.703125 155.46875 C-184.32695515 155.13084315 -185.95064585 154.79226571 -187.57421875 154.453125 C-188.37408203 154.29585937 -189.17394531 154.13859375 -189.99804688 153.9765625 C-195.4585682 152.81759471 -200.93139837 151.28344538 -205.01171875 147.203125 C-205.68763585 143.14762241 -205.16721723 141.44815291 -202.94921875 137.953125 C-191.13120032 125.41381906 -171.04687798 115.31211103 -154.01171875 114.203125 C-151.94937189 114.17539424 -149.88675015 114.16517651 -147.82421875 114.16796875 C-146.15746094 114.15926758 -146.15746094 114.15926758 -144.45703125 114.15039062 C-142.160071 114.14387997 -139.86287062 114.16472215 -137.56640625 114.21289062 C-131.48219281 114.13172072 -127.84558461 113.78102001 -123.4453125 109.359375 C-122.29365146 107.97987945 -121.14884827 106.59462332 -120.01171875 105.203125 C-118.72249061 104.03116891 -117.41254394 102.88118583 -116.07421875 101.765625 C-112.34555002 98.56232642 -108.90232578 95.13651994 -105.48046875 91.609375 C-102.78692179 88.98401911 -99.97493673 86.53657066 -97.13476562 84.07226562 C-93.68208044 81.03250507 -90.35100916 77.86632002 -87.01171875 74.703125 C-82.39312614 70.32809098 -77.72211163 66.04383107 -72.91796875 61.87304688 C-70.06341007 59.37238327 -67.28755133 56.79044603 -64.51171875 54.203125 C-60.43106936 50.41699763 -56.31710041 46.68743796 -52.10546875 43.046875 C-49.34874849 40.61931537 -46.65028559 38.12964004 -43.94921875 35.640625 C-39.71074567 31.73584295 -35.42274152 27.91239414 -31.01171875 24.203125 C-32.54290505 20.39678619 -34.86355158 18.34927717 -37.94921875 15.703125 C-41.03656139 13.04773751 -43.69750866 10.56369411 -46.01171875 7.203125 C-40.94073415 4.82693065 -36.27726555 3.4687087 -30.76171875 2.578125 C-30.07464844 2.45695312 -29.38757812 2.33578125 -28.6796875 2.2109375 C-19.16510715 0.59889074 -9.63931239 0.04344328 0 0 Z M-6.29931641 63.453125 C-6.8360498 64.030625 -7.3727832 64.608125 -7.92578125 65.203125 C-8.81426758 66.15638672 -8.81426758 66.15638672 -9.72070312 67.12890625 C-10.35298828 67.81339844 -10.98527344 68.49789062 -11.63671875 69.203125 C-12.28189453 69.89792969 -12.92707031 70.59273437 -13.59179688 71.30859375 C-17.1460472 75.14732815 -20.63888438 79.02607388 -24.05078125 82.9921875 C-26.93523444 86.24437975 -29.91448855 89.4062383 -32.88671875 92.578125 C-45.23067152 103.60528847 -45.23067152 103.60528847 -53.01171875 116.203125 C-29.58171875 116.203125 -6.15171875 116.203125 17.98828125 116.203125 C16.00443859 109.59031612 13.99089365 103.42042972 11.30078125 97.125 C10.95700439 96.30992981 10.61322754 95.49485962 10.2590332 94.65509033 C9.53872543 92.95002127 8.81596386 91.24598685 8.09082031 89.54296875 C6.98594713 86.94764219 5.88883805 84.34913952 4.79296875 81.75 C4.0876879 80.08314357 3.38197378 78.41647039 2.67578125 76.75 C2.3506958 75.98113464 2.02561035 75.21226929 1.69067383 74.42010498 C-0.07774074 70.27250042 -1.94639469 66.21461982 -4.01171875 62.203125 C-5.19122621 62.08703272 -5.19122621 62.08703272 -6.29931641 63.453125 Z " fill="#FFFFFF" transform="translate(1828.01171875,38.796875)"/>
<path d="M0 0 C1.01189896 -0.00570007 2.02379791 -0.01140015 3.06636047 -0.01727295 C5.19323708 -0.02665079 7.32012774 -0.03322789 9.44702148 -0.03710938 C12.65049372 -0.04679852 15.85331868 -0.07788547 19.05664062 -0.109375 C42.80187243 -0.23218187 63.03580105 3.17687598 81.11328125 19.828125 C93.03973276 32.41174832 99.31204964 48.704952 104.51171875 64.94921875 C104.73182114 65.63648544 104.95192352 66.32375214 105.17869568 67.03184509 C105.40227249 67.73007889 105.6258493 68.42831268 105.85620117 69.14770508 C114.98957843 97.6390912 128.90081063 120.92775873 147.44482422 144.25732422 C148.7308811 145.87862656 150.00382865 147.51031678 151.2734375 149.14453125 C157.56581363 157.19412125 164.57052991 164.58892649 171.58203125 172.0078125 C172.17991455 172.64364258 172.77779785 173.27947266 173.39379883 173.93457031 C174.56619917 175.18037618 175.74301416 176.42204471 176.92456055 177.65917969 C180.98828125 181.97915994 180.98828125 181.97915994 180.98828125 184.203125 C136.90549619 199.36673657 136.90549619 199.36673657 113.61230469 199.49829102 C112.21050864 199.50973096 110.80875335 199.53005421 109.40722656 199.55981445 C92.05403422 199.92663323 74.42017565 196.20666842 61.40234375 183.8515625 C52.34482939 173.91467781 44.6862079 162.83849608 37.98828125 151.203125 C29.96184962 152.00326772 22.07441439 153.33477385 14.13476562 154.7421875 C13.13123047 154.91492188 12.12769531 155.08765625 11.09375 155.265625 C10.20840576 155.42160156 9.32306152 155.57757813 8.41088867 155.73828125 C-2.2886481 157.1914461 -12.73575507 157.21713847 -23.50071907 156.94207191 C-29.09442496 156.80979579 -34.68943393 156.7438296 -40.28408146 156.66351032 C-45.17473429 156.58953774 -50.06318021 156.49377028 -54.95239258 156.3527832 C-59.71911334 156.21664312 -64.48356011 156.14037573 -69.25204277 156.10353661 C-71.05479208 156.07903859 -72.85739421 156.03328362 -74.65901375 155.96492958 C-85.28945347 155.33335174 -85.28945347 155.33335174 -94.50094604 159.82479858 C-97.34476337 162.71967749 -99.64897815 165.91146848 -102.01171875 169.203125 C-123.18508111 190.64416301 -150.72946906 199.21172048 -180.30859375 199.6015625 C-183.16608081 199.61650195 -186.02242157 199.61326201 -188.87988281 199.59423828 C-191.80188989 199.57790039 -194.72256107 199.59433266 -197.64453125 199.61328125 C-199.53255509 199.61130244 -201.42057811 199.6074663 -203.30859375 199.6015625 C-204.16700867 199.60763519 -205.02542358 199.61370789 -205.90985107 199.6199646 C-211.57752074 199.55426324 -215.86107576 198.62988412 -221.01171875 196.203125 C-222.51171875 193.515625 -222.51171875 193.515625 -223.01171875 191.203125 C-218.53468628 185.75271134 -213.92511641 181.21063459 -208.26171875 177.015625 C-207.54306641 176.47389648 -206.82441406 175.93216797 -206.08398438 175.37402344 C-198.10722751 169.42055554 -189.8708727 163.8374126 -181.59960938 158.30371094 C-180.04568941 157.2965459 -180.04568941 157.2965459 -179.01171875 156.203125 C-180.83896484 155.83960938 -180.83896484 155.83960938 -182.703125 155.46875 C-184.32695515 155.13084315 -185.95064585 154.79226571 -187.57421875 154.453125 C-188.37408203 154.29585937 -189.17394531 154.13859375 -189.99804688 153.9765625 C-195.4585682 152.81759471 -200.93139837 151.28344538 -205.01171875 147.203125 C-205.68763585 143.14762241 -205.16721723 141.44815291 -202.94921875 137.953125 C-191.13120032 125.41381906 -171.04687798 115.31211103 -154.01171875 114.203125 C-151.94937189 114.17539424 -149.88675015 114.16517651 -147.82421875 114.16796875 C-146.15746094 114.15926758 -146.15746094 114.15926758 -144.45703125 114.15039062 C-142.160071 114.14387997 -139.86287062 114.16472215 -137.56640625 114.21289062 C-131.48219281 114.13172072 -127.84558461 113.78102001 -123.4453125 109.359375 C-122.29365146 107.97987945 -121.14884827 106.59462332 -120.01171875 105.203125 C-118.72249061 104.03116891 -117.41254394 102.88118583 -116.07421875 101.765625 C-112.34555002 98.56232642 -108.90232578 95.13651994 -105.48046875 91.609375 C-102.78692179 88.98401911 -99.97493673 86.53657066 -97.13476562 84.07226562 C-93.68208044 81.03250507 -90.35100916 77.86632002 -87.01171875 74.703125 C-82.39312614 70.32809098 -77.72211163 66.04383107 -72.91796875 61.87304688 C-70.06341007 59.37238327 -67.28755133 56.79044603 -64.51171875 54.203125 C-60.43106936 50.41699763 -56.31710041 46.68743796 -52.10546875 43.046875 C-49.34874849 40.61931537 -46.65028559 38.12964004 -43.94921875 35.640625 C-39.71074567 31.73584295 -35.42274152 27.91239414 -31.01171875 24.203125 C-32.54290505 20.39678619 -34.86355158 18.34927717 -37.94921875 15.703125 C-41.03656139 13.04773751 -43.69750866 10.56369411 -46.01171875 7.203125 C-40.94073415 4.82693065 -36.27726555 3.4687087 -30.76171875 2.578125 C-30.07464844 2.45695312 -29.38757813 2.33578125 -28.6796875 2.2109375 C-19.16510715 0.59889074 -9.63931239 0.04344328 0 0 Z M-6.29931641 63.453125 C-6.8360498 64.030625 -7.3727832 64.608125 -7.92578125 65.203125 C-8.81426758 66.15638672 -8.81426758 66.15638672 -9.72070312 67.12890625 C-10.35298828 67.81339844 -10.98527344 68.49789062 -11.63671875 69.203125 C-12.28189453 69.89792969 -12.92707031 70.59273437 -13.59179688 71.30859375 C-17.1460472 75.14732815 -20.63888438 79.02607388 -24.05078125 82.9921875 C-26.93523444 86.24437975 -29.91448855 89.4062383 -32.88671875 92.578125 C-45.23067152 103.60528847 -45.23067152 103.60528847 -53.01171875 116.203125 C-29.58171875 116.203125 -6.15171875 116.203125 17.98828125 116.203125 C16.00443859 109.59031612 13.99089365 103.42042972 11.30078125 97.125 C10.95700439 96.30992981 10.61322754 95.49485962 10.2590332 94.65509033 C9.53872543 92.95002127 8.81596386 91.24598685 8.09082031 89.54296875 C6.98594713 86.94764219 5.88883805 84.34913952 4.79296875 81.75 C4.0876879 80.08314357 3.38197378 78.41647039 2.67578125 76.75 C2.3506958 75.98113464 2.02561035 75.21226929 1.69067383 74.42010498 C-0.07774074 70.27250042 -1.94639469 66.21461982 -4.01171875 62.203125 C-5.19122621 62.08703272 -5.19122621 62.08703272 -6.29931641 63.453125 Z " fill="#FFFFFF" transform="translate(233.01171875,38.796875)"/>
<path d="M0 0 C7.16963377 -0.00035039 14.33921942 -0.0120452 21.50883794 -0.02593428 C28.5410792 -0.03905655 35.57329905 -0.04437316 42.60555243 -0.04373521 C46.75580497 -0.04348335 50.90599781 -0.04616395 55.0562377 -0.05691326 C58.92779281 -0.06668546 62.79923161 -0.06661204 66.67079115 -0.05939662 C68.07349143 -0.05836493 69.47619943 -0.06062744 70.8788867 -0.06675708 C99.71000649 -0.18447062 99.71000649 -0.18447062 109.99600363 7.50151837 C111.23428488 9.18511212 111.23428488 9.18511212 111.11709738 11.67339337 C108.21802562 19.92163736 96.29307333 25.24775452 89.25625753 29.85259259 C77.77467369 37.41918092 66.62300068 45.45683697 55.50332785 53.54106915 C53.28533303 55.14812501 51.06015075 56.74460119 48.83194113 58.33745587 C37.89792822 66.16444337 27.18953326 74.26359437 16.51651144 82.44194806 C13.60310574 84.66720659 10.6717443 86.86670575 7.73428488 89.06011212 C2.14807996 93.23796397 -3.38830189 97.4785952 -8.90536356 101.74712384 C-10.20966431 102.75530381 -11.51510123 103.76201482 -12.82137918 104.76763165 C-26.71498195 115.46439329 -40.31139262 126.47999885 -53.64071512 137.87261212 C-54.21789286 138.36583966 -54.79507059 138.8590672 -55.38973856 139.36724102 C-57.93992667 141.56114154 -60.40608614 143.78860037 -62.76571512 146.18511212 C-22.77855344 147.24700733 17.71195809 143.85270865 57.34268332 138.64580548 C62.71313517 138.01004371 68.01917859 137.92211676 73.42178488 137.87261212 C74.4884841 137.84360821 75.55518332 137.81460431 76.65420675 137.78472149 C84.41692622 137.72160995 84.41692622 137.72160995 88.43740988 140.00151837 C90.23428488 142.18511212 90.23428488 142.18511212 90.79678488 145.43511212 C89.62041338 153.2775888 85.42456554 158.70030839 79.85928488 164.12261212 C79.24496603 164.72524884 78.63064718 165.32788556 77.99771261 165.94878399 C38.6209554 203.4839113 -34.75999475 199.77091376 -85.68630838 199.50768292 C-89.22812895 199.4941817 -92.76982543 199.49953736 -96.31166029 199.50455201 C-196.57820722 199.61141457 -196.57820722 199.61141457 -216.95321512 181.74761212 C-219.21480686 178.55018931 -219.99361174 177.1353201 -219.76571512 173.18511212 C-213.93378239 158.94752986 -195.63265017 150.86497199 -183.10653543 143.55767071 C-181.10441414 142.38371098 -179.11468319 141.19373411 -177.13290262 139.98589337 C-163.24695546 131.52867497 -149.04564706 123.59605034 -134.91171122 115.56304181 C-119.11082786 106.58223585 -103.41784983 97.42210176 -87.76571512 88.18511212 C-86.33533915 87.34134015 -86.33533915 87.34134015 -84.87606668 86.48052227 C-46.23017796 65.14498115 -46.23017796 65.14498115 -11.76571512 38.18511212 C-19.41064112 37.99882532 -26.8561569 38.5744815 -34.45321512 39.39214337 C-35.65711893 39.51734356 -36.86102274 39.64254376 -38.10140848 39.7715379 C-40.66583346 40.03848344 -43.23003856 40.3075486 -45.79403543 40.57857525 C-51.80728873 41.21301081 -57.82220653 41.83108161 -63.83715677 42.44918644 C-65.82208285 42.65323174 -67.8069606 42.85774695 -69.79183817 43.06226361 C-154.98418699 51.82489942 -154.98418699 51.82489942 -168.64071512 41.81011212 C-170.22975837 39.51482742 -170.63541869 37.98648552 -170.76571512 35.18511212 C-165.92986477 22.09986998 -152.00975628 13.80319239 -140.45321512 7.18511212 C-139.80820047 6.81144513 -139.16318583 6.43777813 -138.49862528 6.0527879 C-137.86875711 5.70457989 -137.23888895 5.35637188 -136.58993387 4.99761212 C-136.0442576 4.69468243 -135.49858133 4.39175274 -134.93636942 4.07964337 C-128.5172315 1.43430299 -122.30049145 0.86711565 -115.44833231 0.77764142 C-114.52734499 0.75873412 -113.60635767 0.73982682 -112.65746164 0.72034657 C-109.54259422 0.66035642 -106.4277275 0.6154475 -103.31259012 0.57183087 C-101.036365 0.53414776 -98.76014024 0.49644253 -96.48391581 0.45871747 C-64.32582449 -0.03536046 -32.16103787 -0.00231849 0 0 Z " fill="#FFFFFF" transform="translate(800.7657151222229,38.81488788127899)"/>
<path d="M0 0 C1.43597291 -0.0114852 2.8719043 -0.03188228 4.30761719 -0.06152344 C14.82166146 -0.2779215 23.71320324 0.59588064 32.79223633 6.42016602 C39.18379415 13.25764648 42.28410043 21.0288664 45.28051758 29.79125977 C51.0379951 46.61359637 59.66946361 60.15147541 71.47973633 73.29516602 C72.29700195 74.22200195 73.11426758 75.14883789 73.95629883 76.10375977 C75.78712581 78.17718749 77.62731428 80.24104759 79.47973633 82.29516602 C75.20332097 87.9473274 65.11353954 89.15378837 58.47973633 90.29516602 C54.78628524 90.68133226 51.12962816 90.82747588 47.41723633 90.85766602 C46.56210449 90.8720874 45.70697266 90.88650879 44.82592773 90.90136719 C37.55530489 90.78592675 31.47623086 88.79224479 25.85473633 84.10766602 C21.82854781 79.33981119 17.94277777 74.48972818 14.47973633 69.29516602 C13.64563232 69.43809082 12.81152832 69.58101563 11.95214844 69.72827148 C4.29235715 70.90717612 -3.13928726 71.44574457 -10.89135742 71.42797852 C-12.24132309 71.43048615 -12.24132309 71.43048615 -13.61856079 71.43304443 C-17.34514973 71.43675408 -21.07021332 71.43451705 -24.79638672 71.37426758 C-35.4977998 70.83106893 -35.4977998 70.83106893 -45.39868164 74 C-47.35982864 75.99224342 -48.92773586 78.00480156 -50.52026367 80.29516602 C-53.28588867 82.50219727 -53.28588867 82.50219727 -55.77026367 84.10766602 C-56.57979492 84.65036133 -57.38932617 85.19305664 -58.22338867 85.75219727 C-67.74489491 90.20835243 -77.27778289 90.72665364 -87.64526367 90.54516602 C-88.86213867 90.54000977 -90.07901367 90.53485352 -91.33276367 90.52954102 C-100.20967694 90.45045938 -100.20967694 90.45045938 -102.52026367 89.29516602 C-102.24399025 85.81412085 -101.7241688 84.50115535 -99.22729492 81.97875977 C-98.27209961 81.23754883 -97.3169043 80.49633789 -96.33276367 79.73266602 C-95.34276367 78.95922852 -94.35276367 78.18579102 -93.33276367 77.38891602 C-90.44955952 75.2425307 -87.57200704 73.19219568 -84.52026367 71.29516602 C-87.49026367 70.30516602 -90.46026367 69.31516602 -93.52026367 68.29516602 C-94.01526367 65.82016602 -94.01526367 65.82016602 -94.52026367 63.29516602 C-86.43943403 55.71938823 -79.48089236 52.29516602 -68.39526367 52.29516602 C-61.37607056 52.01663333 -57.68484103 49.94154936 -52.85229492 44.90063477 C-52.08272461 44.04083008 -51.3131543 43.18102539 -50.52026367 42.29516602 C-48.81976062 40.57903813 -47.11139156 38.87066907 -45.39526367 37.17016602 C-44.14422852 35.9055957 -44.14422852 35.9055957 -42.86791992 34.61547852 C-40.31918334 32.09642771 -37.66808011 29.7594221 -34.94604492 27.43188477 C-29.00645046 22.20006806 -23.29047764 16.71225491 -17.52026367 11.29516602 C-19.50026367 8.65516602 -21.48026367 6.01516602 -23.52026367 3.29516602 C-16.05191631 -0.43900767 -8.18078747 0.04541278 0 0 Z M-6.86010742 30.62329102 C-7.38733398 31.25750977 -7.91456055 31.89172852 -8.45776367 32.54516602 C-10.71665026 35.21475926 -13.00432089 37.83780619 -15.39135742 40.39282227 C-15.88708252 40.92423828 -16.38280762 41.4556543 -16.89355469 42.00317383 C-17.8842091 43.06163274 -18.87812604 44.11704878 -19.87548828 45.16918945 C-22.08957609 47.54657647 -23.47917548 49.17190145 -24.52026367 52.29516602 C-14.62026367 52.29516602 -4.72026367 52.29516602 5.47973633 52.29516602 C4.55161133 49.79954102 3.62348633 47.30391602 2.66723633 44.73266602 C2.38130615 43.96108154 2.09537598 43.18949707 1.80078125 42.39453125 C0.14797697 37.96957214 -1.6266342 33.62264958 -3.52026367 29.29516602 C-5.59795457 29.06050131 -5.59795457 29.06050131 -6.86010742 30.62329102 Z " fill="#FFFFFF" transform="translate(1553.520263671875,258.704833984375)"/>
<path d="M0 0 C1.43597291 -0.0114852 2.8719043 -0.03188228 4.30761719 -0.06152344 C14.82166146 -0.2779215 23.71320324 0.59588064 32.79223633 6.42016602 C39.18379415 13.25764648 42.28410043 21.0288664 45.28051758 29.79125977 C51.0379951 46.61359637 59.66946361 60.15147541 71.47973633 73.29516602 C72.29700195 74.22200195 73.11426758 75.14883789 73.95629883 76.10375977 C75.78712581 78.17718749 77.62731428 80.24104759 79.47973633 82.29516602 C75.20332097 87.9473274 65.11353954 89.15378837 58.47973633 90.29516602 C54.78628524 90.68133226 51.12962816 90.82747588 47.41723633 90.85766602 C46.56210449 90.8720874 45.70697266 90.88650879 44.82592773 90.90136719 C37.55530489 90.78592675 31.47623086 88.79224479 25.85473633 84.10766602 C21.82854781 79.33981119 17.94277777 74.48972818 14.47973633 69.29516602 C13.64563232 69.43809082 12.81152832 69.58101563 11.95214844 69.72827148 C4.29235715 70.90717612 -3.13928726 71.44574457 -10.89135742 71.42797852 C-12.24132309 71.43048615 -12.24132309 71.43048615 -13.61856079 71.43304443 C-17.34514973 71.43675408 -21.07021332 71.43451705 -24.79638672 71.37426758 C-35.4977998 70.83106893 -35.4977998 70.83106893 -45.39868164 74 C-47.35982864 75.99224342 -48.92773586 78.00480156 -50.52026367 80.29516602 C-53.28588867 82.50219727 -53.28588867 82.50219727 -55.77026367 84.10766602 C-56.57979492 84.65036133 -57.38932617 85.19305664 -58.22338867 85.75219727 C-67.74489491 90.20835243 -77.27778289 90.72665364 -87.64526367 90.54516602 C-88.86213867 90.54000977 -90.07901367 90.53485352 -91.33276367 90.52954102 C-100.20967694 90.45045938 -100.20967694 90.45045938 -102.52026367 89.29516602 C-102.24399025 85.81412085 -101.7241688 84.50115535 -99.22729492 81.97875977 C-98.27209961 81.23754883 -97.3169043 80.49633789 -96.33276367 79.73266602 C-95.34276367 78.95922852 -94.35276367 78.18579102 -93.33276367 77.38891602 C-90.44955952 75.2425307 -87.57200704 73.19219568 -84.52026367 71.29516602 C-87.49026367 70.30516602 -90.46026367 69.31516602 -93.52026367 68.29516602 C-94.01526367 65.82016602 -94.01526367 65.82016602 -94.52026367 63.29516602 C-86.43943403 55.71938823 -79.48089236 52.29516602 -68.39526367 52.29516602 C-61.37607056 52.01663333 -57.68484103 49.94154936 -52.85229492 44.90063477 C-52.08272461 44.04083008 -51.3131543 43.18102539 -50.52026367 42.29516602 C-48.81976062 40.57903813 -47.11139156 38.87066907 -45.39526367 37.17016602 C-44.14422852 35.9055957 -44.14422852 35.9055957 -42.86791992 34.61547852 C-40.31918334 32.09642771 -37.66808011 29.7594221 -34.94604492 27.43188477 C-29.00645046 22.20006806 -23.29047764 16.71225491 -17.52026367 11.29516602 C-19.50026367 8.65516602 -21.48026367 6.01516602 -23.52026367 3.29516602 C-16.05191631 -0.43900767 -8.18078747 0.04541278 0 0 Z M-6.86010742 30.62329102 C-7.38733398 31.25750977 -7.91456055 31.89172852 -8.45776367 32.54516602 C-10.71665026 35.21475926 -13.00432089 37.83780619 -15.39135742 40.39282227 C-15.88708252 40.92423828 -16.38280762 41.4556543 -16.89355469 42.00317383 C-17.8842091 43.06163274 -18.87812604 44.11704878 -19.87548828 45.16918945 C-22.08957609 47.54657647 -23.47917548 49.17190145 -24.52026367 52.29516602 C-14.62026367 52.29516602 -4.72026367 52.29516602 5.47973633 52.29516602 C4.55161133 49.79954102 3.62348633 47.30391602 2.66723633 44.73266602 C2.38130615 43.96108154 2.09537598 43.18949707 1.80078125 42.39453125 C0.14797697 37.96957214 -1.6266342 33.62264958 -3.52026367 29.29516602 C-5.59795457 29.06050131 -5.59795457 29.06050131 -6.86010742 30.62329102 Z " fill="#FFFFFF" transform="translate(1032.520263671875,258.704833984375)"/>
<path d="M0 0 C1.66385742 -0.0299707 1.66385742 -0.0299707 3.36132812 -0.06054688 C4.95944336 -0.05958008 4.95944336 -0.05958008 6.58984375 -0.05859375 C7.54624756 -0.06044678 8.50265137 -0.0622998 9.48803711 -0.06420898 C12.75331571 0.57212554 13.9555599 1.93529533 16.0625 4.4375 C13.9289949 11.51784403 11.00901962 17.75301098 7.5 24.25 C6.5193875 26.08976714 5.53891334 27.92960802 4.55859375 29.76953125 C4.12732178 30.57108643 3.6960498 31.3726416 3.25170898 32.19848633 C2.15520792 34.26295179 1.09789791 36.34184504 0.0625 38.4375 C1.10083984 37.74527344 1.10083984 37.74527344 2.16015625 37.0390625 C3.69257107 36.01745262 5.22513308 34.99605865 6.75976562 33.9777832 C9.68932084 32.03156643 12.60467789 30.06891544 15.49609375 28.06640625 C34.62005631 14.90557293 56.39519195 1.26903815 80.25 1.25 C81.47879883 1.23163086 81.47879883 1.23163086 82.73242188 1.21289062 C84.84376936 1.20767742 86.95471809 1.31473679 89.0625 1.4375 C91.0625 3.4375 91.0625 3.4375 91.1875 6.125 C89.35879563 11.50951842 84.90630923 14.90366031 79.95361328 17.57495117 C77.68140707 18.54005586 75.3956708 19.38089151 73.0625 20.1875 C72.19471924 20.50332031 71.32693848 20.81914062 70.43286133 21.14453125 C67.3176928 22.26713373 64.19163303 23.35442379 61.0625 24.4375 C59.69574011 24.91323718 58.32904425 25.38915837 56.96240234 25.86523438 C47.67591473 29.09580438 38.37437065 32.28087449 29.0625 35.4375 C33.95510535 51.58309766 44.8594242 62.19897596 59.39453125 70.29296875 C66.75032676 74.09657194 74.12147021 77.09591429 82.0625 79.4375 C80.39904776 83.38202289 78.41951129 84.70862164 74.50317383 86.49804688 C65.21180319 90.07443922 56.13902522 90.95972434 46.25 90.875 C44.40559326 90.86472778 44.40559326 90.86472778 42.52392578 90.85424805 C27.81623827 90.59456331 13.05126165 87.5283085 1.84765625 77.3046875 C-2.02658687 73.2524157 -5.45813492 68.82735314 -8.9375 64.4375 C-9.95364351 63.20445347 -10.97340206 61.97435618 -12 60.75 C-12.639375 59.986875 -13.27875 59.22375 -13.9375 58.4375 C-20.1409784 63.38872345 -25.42622517 69.07811347 -30.66064453 75.01782227 C-36.60305336 81.59069173 -43.10126646 85.66217081 -51.5625 88.25 C-52.58476685 88.56626343 -52.58476685 88.56626343 -53.62768555 88.88891602 C-60.34738686 90.80960797 -66.96784288 91.36353836 -73.9375 90.4375 C-74.9275 89.7775 -75.9175 89.1175 -76.9375 88.4375 C-78.07205664 82.46712817 -74.97960475 77.69748769 -72.3125 72.5625 C-71.82612061 71.60939941 -71.33974121 70.65629883 -70.83862305 69.67431641 C-60.43893304 49.57445979 -48.77089354 30.35330479 -34.9375 12.4375 C-34.25300781 11.54160156 -33.56851562 10.64570313 -32.86328125 9.72265625 C-25.05862681 0.46155514 -11.18558639 -0.07328258 0 0 Z " fill="#FFFFFF" transform="translate(1353.9375,258.5625)"/>
<path d="M0 0 C4.3324921 -0.00557712 8.66468441 -0.02988222 12.9970808 -0.05797195 C16.37633667 -0.07659272 19.7555181 -0.08180266 23.13482094 -0.08333588 C24.73392774 -0.08634182 26.33303388 -0.09429986 27.93208885 -0.10752106 C30.1528852 -0.12464268 32.37291384 -0.12269205 34.59375 -0.11621094 C35.84991623 -0.11985657 37.10608246 -0.1235022 38.40031433 -0.1272583 C42.53017478 0.30001085 45.2401317 1.43578138 48.95239258 3.24023438 C48.61612196 6.03459582 48.38476341 7.77080318 46.44848633 9.87304688 C45.76915039 10.36546875 45.08981445 10.85789062 44.38989258 11.36523438 C43.56875977 11.96722656 42.74762695 12.56921875 41.90161133 13.18945312 C39.16742954 15.09070536 36.41999939 16.97019459 33.66601562 18.8425293 C33.01802002 19.28314697 32.37002441 19.72376465 31.70239258 20.17773438 C31.02797119 20.63575439 30.3535498 21.09377441 29.65869141 21.56567383 C20.14642305 28.08368146 11.07250054 35.19015655 1.95239258 42.24023438 C0.31310018 43.50199277 -1.32622177 44.76371279 -2.96557617 46.02539062 C-11.47559761 52.59306051 -19.86035946 59.2730469 -28.04760742 66.24023438 C-15.69741887 66.45722647 -3.48149063 66.34831017 8.82739258 65.24023438 C16.3815948 64.56023254 23.86474521 64.04657432 31.45239258 64.05273438 C32.58330322 64.05176758 32.58330322 64.05176758 33.73706055 64.05078125 C38.81593219 64.10377398 38.81593219 64.10377398 39.95239258 65.24023438 C40.05487012 70.26163375 38.96591317 72.698525 35.51489258 76.36523438 C28.78256893 82.5049239 21.67170678 85.27840274 12.88989258 87.42773438 C12.26091064 87.58274414 11.63192871 87.73775391 10.98388672 87.89746094 C-4.74673889 91.41572487 -20.63036433 91.58522249 -36.67504883 91.5559082 C-40.27740896 91.55275207 -43.87894206 91.57627746 -47.48120117 91.6015625 C-58.30121066 91.63264808 -68.98614152 91.43343368 -79.71948242 89.97070312 C-80.53886292 89.86260818 -81.35824341 89.75451324 -82.20245361 89.6431427 C-88.55965597 88.64947352 -95.39365491 86.89418688 -100.04760742 82.24023438 C-99.95348303 78.7576318 -99.20054105 77.40862407 -96.84448242 74.81445312 C-87.52928506 66.24082874 -75.27870111 60.44077473 -64.3659668 54.18334961 C-47.26962654 44.37199329 -30.30517537 34.39738885 -14.04760742 23.24023438 C-12.05147561 21.90098565 -10.04998299 20.57014799 -8.04760742 19.24023438 C-15.5925572 19.0554273 -22.87206666 19.79783979 -30.36010742 20.67773438 C-66.29083469 24.67317293 -66.29083469 24.67317293 -76.04760742 21.24023438 C-76.70760742 20.58023437 -77.36760742 19.92023438 -78.04760742 19.24023438 C-77.80733969 14.79528129 -75.95412181 12.48781933 -73.04760742 9.24023438 C-70.32104492 7.25585938 -70.32104492 7.25585938 -67.42260742 5.49023438 C-65.98014648 4.60078125 -65.98014648 4.60078125 -64.50854492 3.69335938 C-59.44760221 0.7049932 -55.18947599 0.90080779 -49.37182617 0.69335938 C-48.23396164 0.65172668 -47.09609711 0.61009399 -45.92375183 0.56719971 C-30.61996129 0.06290461 -15.31077868 0.01681193 0 0 Z " fill="#FFFFFF" transform="translate(1219.047607421875,257.759765625)"/>
</svg>
